<?xml version="1.0" encoding="utf-8"?>
<!-- Generator: Adobe Illustrator 24.1.0, SVG Export Plug-In . SVG Version: 6.00 Build 0)  -->
<svg version="1.1" id="Ebene_1" xmlns="http://www.w3.org/2000/svg" xmlns:xlink="http://www.w3.org/1999/xlink" x="0px" y="0px"
	 viewBox="0 0 283.5 283.5" style="enable-background:new 0 0 283.5 283.5;" xml:space="preserve">
<style type="text/css">
	.st0{fill:#FFFFFF;}
</style>
<path id="Path_2520" class="st0" d="M240,239.6H199v-64.3c0-15.3-0.3-35.1-21.4-35.1c-21.4,0-24.7,16.7-24.7,34v65.4h-41.1V107.4
	h39.4v18.1h0.6c8-13.7,23-22,38.9-21.4c41.6,0,49.3,27.4,49.3,63L240,239.6z M65.6,89.3c-13.2,0-23.8-10.7-23.8-23.8
	c0-13.2,10.7-23.8,23.8-23.8c13.2,0,23.8,10.7,23.8,23.8S78.7,89.3,65.6,89.3L65.6,89.3 M86.1,239.6H45V107.4h41.1V239.6z
	 M260.5,3.5H24.4c-11.2-0.1-20.3,8.8-20.4,20v237.1c0.1,11.2,9.3,20.1,20.4,20h236.1c11.2,0.1,20.4-8.8,20.5-20V23.5
	C280.9,12.3,271.7,3.4,260.5,3.5"/>
</svg>
