<?xml version="1.0" encoding="utf-8"?>
<!-- Generator: Adobe Illustrator 24.1.0, SVG Export Plug-In . SVG Version: 6.00 Build 0)  -->
<svg version="1.1" id="Ebene_1" xmlns="http://www.w3.org/2000/svg" xmlns:xlink="http://www.w3.org/1999/xlink" x="0px" y="0px"
	 viewBox="0 0 283.5 283.5" style="enable-background:new 0 0 283.5 283.5;" xml:space="preserve">
<style type="text/css">
	.st0{fill:#FFFFFF;}
</style>
<path class="st0" d="M47.3,57c-2.4,0-4.5,0.9-5.5,2.5c-1.1,1.7-0.9,4,0.2,6.2l27.4,47.4c0,0.1,0,0.1,0,0.2l-43,75.9
	c-1.1,2.2-1.1,4.5,0,6.2c1,1.7,2.9,2.8,5.3,2.8h40.5c6.1,0,9-4.1,11-7.8c0,0,42.1-74.4,43.7-77.3c-0.2-0.3-27.8-48.6-27.8-48.6
	C97.1,61,94,57,87.8,57L47.3,57L47.3,57z"/>
<path class="st0" d="M217.4,1.5c-6.1,0-8.7,3.8-10.8,7.7c0,0-87.3,154.7-90.1,159.8c0.1,0.3,57.5,105.6,57.5,105.6
	c2,3.6,5.1,7.7,11.3,7.7h40.5c2.4,0,4.3-0.9,5.4-2.6c1.1-1.7,1.1-4-0.1-6.3L174,169.1c-0.1-0.1-0.1-0.2,0-0.3l89.7-158.6
	c1.1-2.2,1.2-4.5,0.1-6.3c-1-1.7-2.9-2.6-5.4-2.6L217.4,1.5L217.4,1.5L217.4,1.5L217.4,1.5z"/>
</svg>
